<svg id="Layer_1" data-name="Layer 1" xmlns="http://www.w3.org/2000/svg" viewBox="0 0 576 576"><defs><style>.cls-1{fill:#fff;}</style></defs><title>UTDmono_solid_blk</title><circle class="cls-1" cx="287.52" cy="288.04" r="213.23"/><path d="M402.58,221.61c-4.64,0-24,0-26,.32V385.16c2,.32,21.7.32,24,.32,21.19,0,31.13-24.84,31.13-88.39C431.71,237.41,419.13,221.61,402.58,221.61Z"/><path d="M288,58.49c-126.55,0-229.51,103-229.51,229.51S161.45,517.51,288,517.51,517.51,414.55,517.51,288,414.55,58.49,288,58.49Zm-37.2,138.9c-6.62,0-10.93,4.2-10.93,10.65V400.3c0,5.81,4.3,10.32,10.93,10.32v6.13c-8.61,1-44.31,5.18-71.79,5.18-31.13,0-51.32-16.13-62.25-29.36,2-5.48,2.32-10,2.32-18.71V209.35c0-12.16,6.6-18.39,6.6-18.39h44.39v6.13c-6.29,0-10.93,4.2-10.93,12.26V370c0,13.87,9.6,19,19.87,19,10.93,0,20.2-6.13,20.2-19V209.35c0-13,4.56-18.25,4.56-18.25,20.87,0,47-.15,47-.15Zm4.75,259.49,1.32-5.43c6.33,0,11.76-4.22,11.76-14.77V167.43h-99c-10.25,0-16,4.22-18.39,10.25l-6.63-1.81,9.65-41.3c2.41.91,7.84,1.51,16,1.51H408.35c4.52,0,10.85-.6,13.26-1.51l9.65,41.3-6.63,1.81c-3.32-6.63-7.54-10.25-18.09-10.25H307.21V436.68c0,10.85,4.82,14.77,11.46,14.77l1.32,5.43Zm140.08-38.48c-27.48,0-61.77-1-70.38-1.94v-6.13c6.62,0,10.93-4.52,10.93-10.32V207.73c0-6.45-4.3-10.65-10.93-10.65v-6.45c10.6-1,45.87-2.26,69.71-2.26,51,0,78.48,27.1,78.48,108.72C473.43,380.65,450.59,418.39,395.62,418.39Z"/></svg>